<svg width="300" height="220" xmlns="http://www.w3.org/2000/svg">

 <g>
  <title>background</title>
  <rect fill="none" id="canvas_background" height="222" width="302" y="-1" x="-1"/>
 </g>
 <g>
  <title>Layer 1</title>
  <text id="svg_1" y="25" x="117" text-anchor="end">Federalists</text>
  <circle id="svg_2" stroke="rgb(136, 136, 136)" fill="rgb(186, 228, 179)" r="8" cy="24" cx="144"/>
  <circle id="svg_3" stroke="rgb(136, 136, 136)" fill="rgb(116, 196, 118)" r="8" cy="24" cx="184"/>
  <circle id="svg_4" stroke="rgb(136, 136, 136)" fill="rgb(49, 163, 84)" r="8" cy="24" cx="225"/>
  <circle id="svg_5" stroke="rgb(136, 136, 136)" fill="rgb(0, 109, 44)" r="8" cy="24" cx="266"/>
  <text id="svg_6" y="47" x="117" text-anchor="end">Anti-Federalists</text>
  <circle id="svg_7" stroke="rgb(136, 136, 136)" fill="rgb(253, 190, 133)" r="8" cy="46" cx="144"/>
  <circle id="svg_8" stroke="rgb(136, 136, 136)" fill="rgb(253, 141, 60)" r="8" cy="46" cx="184"/>
  <circle id="svg_9" stroke="rgb(136, 136, 136)" fill="rgb(230, 85, 13)" r="8" cy="46" cx="225"/>
  <circle id="svg_10" stroke="rgb(136, 136, 136)" fill="rgb(166, 54, 3)" r="8" cy="46" cx="266"/>
  <text id="svg_16" y="72" x="117" text-anchor="end">Other parties</text>
  <circle id="svg_17" stroke="rgb(136, 136, 136)" fill="rgb(189, 215, 231)" r="8" cy="71" cx="144"/>
  <circle id="svg_18" stroke="rgb(136, 136, 136)" fill="rgb(107, 174, 214)" r="8" cy="71" cx="184"/>
  <circle id="svg_19" stroke="rgb(136, 136, 136)" fill="rgb(49, 130, 189)" r="8" cy="71" cx="225"/>
  <circle id="svg_20" stroke="rgb(136, 136, 136)" fill="rgb(8, 81, 156)" r="8" cy="71" cx="266"/>
  <text id="svg_21" text-anchor="middle" y="98" x="144">≤40%</text>
  <text id="svg_22" text-anchor="middle" y="98" x="184">≤60%</text>
  <text id="svg_23" text-anchor="middle" y="98" x="225">≤80%</text>
  <text id="svg_24" text-anchor="middle" y="98" x="266">≤100%</text>
  <line id="svg_25" stroke-width="2px" stroke="rgb(187, 187, 187)" y2="121" y1="121" x2="186" x1="136"/>
  <text id="svg_26" y="126" x="76.078125">County</text>
  <line id="svg_27" stroke-width="3px" stroke="rgb(34, 34, 34)" y2="143" y1="143" x2="186" x1="136"/>
  <text id="svg_28" y="148" x="73.421875">District</text>
  <circle id="svg_29" stroke-width="1.5px" stroke="rgb(51, 51, 51)" fill="rgb(234, 249, 69)" r="5" cy="164" cx="141"/>
  <text id="svg_30" y="168" x="6.5625">Major city or town</text>
  <circle stroke="rgb(136, 136, 136)" id="svg_31" fill="rgb(199, 199, 199)" r="8" cy="187" cx="142"/>
  <text id="svg_32" y="191" x="12.671875">No data available</text>
  <text stroke="rgb(136, 136, 136)" xml:space="preserve" text-anchor="start" font-family="null" font-size="null" id="svg_33" y="137" x="93" fill-opacity="null" stroke-opacity="null" stroke-width="null" fill="null"/>
 </g>
</svg>