<svg width="535" height="110" xmlns="http://www.w3.org/2000/svg">

 <g>
  <title>background</title>
  <rect fill="none" id="canvas_background" height="112" width="537" y="-1" x="-1"/>
 </g>
 <g>
  <title>Layer 1</title>
  <text id="svg_1" y="20" x="105" text-anchor="end">Federalists</text>
  <circle id="svg_2" stroke="rgb(136, 136, 136)" fill="rgb(186, 228, 179)" r="8" cy="19" cx="132"/>
  <circle id="svg_3" stroke="rgb(136, 136, 136)" fill="rgb(116, 196, 118)" r="8" cy="19" cx="184"/>
  <circle id="svg_4" stroke="rgb(136, 136, 136)" fill="rgb(49, 163, 84)" r="8" cy="19" cx="236"/>
  <circle id="svg_5" stroke="rgb(136, 136, 136)" fill="rgb(0, 109, 44)" r="8" cy="19" cx="288"/>
  <text id="svg_6" y="42" x="105" text-anchor="end">Anti-Federalists</text>
  <circle id="svg_7" stroke="rgb(136, 136, 136)" fill="rgb(253, 190, 133)" r="8" cy="41" cx="132"/>
  <circle id="svg_8" stroke="rgb(136, 136, 136)" fill="rgb(253, 141, 60)" r="8" cy="41" cx="184"/>
  <circle id="svg_9" stroke="rgb(136, 136, 136)" fill="rgb(230, 85, 13)" r="8" cy="41" cx="236"/>
  <circle id="svg_10" stroke="rgb(136, 136, 136)" fill="rgb(166, 54, 3)" r="8" cy="41" cx="288"/>
  <text id="svg_16" y="67" x="105" text-anchor="end">Other parties</text>
  <circle id="svg_17" stroke="rgb(136, 136, 136)" fill="rgb(189, 215, 231)" r="8" cy="66" cx="132"/>
  <circle id="svg_18" stroke="rgb(136, 136, 136)" fill="rgb(107, 174, 214)" r="8" cy="66" cx="184"/>
  <circle id="svg_19" stroke="rgb(136, 136, 136)" fill="rgb(49, 130, 189)" r="8" cy="66" cx="236"/>
  <circle id="svg_20" stroke="rgb(136, 136, 136)" fill="rgb(8, 81, 156)" r="8" cy="66" cx="288"/>
  <text id="svg_21" text-anchor="middle" y="93" x="132">≤40%</text>
  <text id="svg_22" text-anchor="middle" y="93" x="184">≤60%</text>
  <text id="svg_23" text-anchor="middle" y="93" x="236">≤80%</text>
  <text id="svg_24" text-anchor="middle" y="93" x="288">≤100%</text>
  <line id="svg_25" stroke-width="2px" stroke="rgb(187, 187, 187)" y2="19" y1="19" x2="380" x1="330" stroke-dasharray="5px, 5px"/>
  <text id="svg_26" y="24" x="385">County</text>
  <line id="svg_27" stroke-width="3px" stroke="rgb(34, 34, 34)" y2="41" y1="41" x2="380" x1="330"/>
  <text id="svg_28" y="45" x="384">Congressional district</text>
  <circle id="svg_29" stroke-width="1.5px" stroke="rgb(51, 51, 51)" fill="rgb(234, 249, 69)" r="5" cy="62" cx="370"/>
  <text id="svg_30" y="66" x="385">Major city or town</text>
  <circle id="svg_31" stroke="rgb(136, 136, 136)" fill="rgb(199, 199, 199)" r="8" cy="85" cx="370"/>
  <text id="svg_32" y="89" x="385">No data available</text>
 </g>
</svg>